# xmcd
# 
# Track frame offsets:
#     150
#     13457
#     27801
#     38973
#     56796
#     68877
#     87138
#     101005
#     116606
#     129665
#     141854
#     156329
# 
# Disc length: 2353
# 
# Revision: 1
# Processed by: cddbd v1.5.2PL0 Copyright (c) Steve Scherf et al.
# Submitted via: fre:ac v1.1beta1pre4
# 
DISCID=aa092f0c
DTITLE=Brad Fitch - Christmas Time With You
DYEAR=2014
DGENRE=Christmas
TTITLE0=Christmas Is The Time
TTITLE1=Colorado Christmas
TTITLE2=The Marvelous Toy
TTITLE3=Estes Park Christmas
TTITLE4=Christmas Time With You
TTITLE5=What Child Is This?
TTITLE6=Song For A Winter's Night
TTITLE7=Joy To The World
TTITLE8=Cowboy Christmas
TTITLE9=Away In A Manger
TTITLE10=The Miracle Hymn
TTITLE11=Silent Night
EXTD=
EXTT0=
EXTT1=
EXTT2=
EXTT3=
EXTT4=
EXTT5=
EXTT6=
EXTT7=
EXTT8=
EXTT9=
EXTT10=
EXTT11=
PLAYORDER=
